<svg xmlns="http://www.w3.org/2000/svg" viewBox="0 0 180 120" width="180" height="120" style="width: 100%; height: 100%; transform: translate3d(0px, 0px, 0px);" preserveAspectRatio="xMidYMid meet"><defs><clipPath id="__lottie_element_2"><rect width="180" height="120" x="0" y="0"></rect></clipPath></defs><g clip-path="url(#__lottie_element_2)"><g style="display: block;" transform="matrix(1,0,0,1,88.75,67.25)" opacity="1"><g opacity="1" transform="matrix(-0.053189415484666824,0.6055160760879517,-0.6055160760879517,-0.053189415484666824,38.19788360595703,69.65174102783203)"><path fill="rgb(233,30,99)" fill-opacity="1" d=" M-49.46099853515625,14.49899959564209 C-49.46099853515625,14.49899959564209 -44.54899978637695,13.006999969482422 -44.54899978637695,13.006999969482422 C-44.31999969482422,12.937999725341797 -44.077999114990234,13.067000389099121 -44.00899887084961,13.295999526977539 C-44.00899887084961,13.295999526977539 -43.970001220703125,13.423999786376953 -43.970001220703125,13.423999786376953 C-43.9010009765625,13.652999877929688 -44.02899932861328,13.895000457763672 -44.257999420166016,13.96399974822998 C-44.257999420166016,13.96399974822998 -49.17100143432617,15.456000328063965 -49.17100143432617,15.456000328063965 C-49.400001525878906,15.524999618530273 -49.641998291015625,15.397000312805176 -49.71099853515625,15.168000221252441 C-49.71099853515625,15.168000221252441 -49.75,15.038999557495117 -49.75,15.038999557495117 C-49.819000244140625,14.8100004196167 -49.689998626708984,14.567999839782715 -49.46099853515625,14.49899959564209z"></path></g><g opacity="1" transform="matrix(-0.4752388298511505,0.3789813816547394,-0.3789813816547394,-0.4752388298511505,-50.430259704589844,67.0452880859375)"><path fill="rgb(233,30,99)" fill-opacity="1" d=" M-49.46099853515625,14.49899959564209 C-49.46099853515625,14.49899959564209 -44.54899978637695,13.006999969482422 -44.54899978637695,13.006999969482422 C-44.31999969482422,12.937999725341797 -44.077999114990234,13.067000389099121 -44.00899887084961,13.295999526977539 C-44.00899887084961,13.295999526977539 -43.970001220703125,13.423999786376953 -43.970001220703125,13.423999786376953 C-43.9010009765625,13.652999877929688 -44.02899932861328,13.895000457763672 -44.257999420166016,13.96399974822998 C-44.257999420166016,13.96399974822998 -49.17100143432617,15.456000328063965 -49.17100143432617,15.456000328063965 C-49.400001525878906,15.524999618530273 -49.641998291015625,15.397000312805176 -49.71099853515625,15.168000221252441 C-49.71099853515625,15.168000221252441 -49.75,15.038999557495117 -49.75,15.038999557495117 C-49.819000244140625,14.8100004196167 -49.689998626708984,14.567999839782715 -49.46099853515625,14.49899959564209z"></path></g><g opacity="1" transform="matrix(0.5461386442184448,-0.2668546736240387,0.2668546736240387,0.5461386442184448,40.1513671875,2.0643043518066406)"><path fill="rgb(233,30,99)" fill-opacity="1" d=" M14.84000015258789,49.36000061035156 C14.84000015258789,49.36000061035156 13.314000129699707,44.45800018310547 13.314000129699707,44.45800018310547 C13.243000030517578,44.22999954223633 13.371000289916992,43.98699951171875 13.598999977111816,43.91600036621094 C13.598999977111816,43.91600036621094 13.72700023651123,43.875999450683594 13.72700023651123,43.875999450683594 C13.954999923706055,43.80500030517578 14.197999954223633,43.93299865722656 14.269000053405762,44.1609992980957 C14.269000053405762,44.1609992980957 15.795000076293945,49.0629997253418 15.795000076293945,49.0629997253418 C15.866000175476074,49.29100036621094 15.73799991607666,49.534000396728516 15.510000228881836,49.60499954223633 C15.510000228881836,49.60499954223633 15.381999969482422,49.64500045776367 15.381999969482422,49.64500045776367 C15.154000282287598,49.715999603271484 14.91100025177002,49.5880012512207 14.84000015258789,49.36000061035156z"></path></g><g opacity="1" transform="matrix(-0.39549827575683594,-0.4615841507911682,0.4615841507911682,-0.39549827575683594,-73.98572540283203,-8.796924591064453)"><path fill="rgb(139,195,74)" fill-opacity="1" d=" M-48.4900016784668,-17.47599983215332 C-48.4900016784668,-17.47599983215332 -43.643001556396484,-15.782999992370605 -43.643001556396484,-15.782999992370605 C-43.41699981689453,-15.704000473022461 -43.29800033569336,-15.456999778747559 -43.37699890136719,-15.230999946594238 C-43.37699890136719,-15.230999946594238 -43.42100143432617,-15.104000091552734 -43.42100143432617,-15.104000091552734 C-43.5,-14.878000259399414 -43.74700164794922,-14.760000228881836 -43.972999572753906,-14.83899974822998 C-43.972999572753906,-14.83899974822998 -48.819000244140625,-16.531999588012695 -48.819000244140625,-16.531999588012695 C-49.04499816894531,-16.611000061035156 -49.16400146484375,-16.857999801635742 -49.084999084472656,-17.083999633789062 C-49.084999084472656,-17.083999633789062 -49.04100036621094,-17.209999084472656 -49.04100036621094,-17.209999084472656 C-48.96200180053711,-17.43600082397461 -48.715999603271484,-17.55500030517578 -48.4900016784668,-17.47599983215332z"></path></g><g opacity="1" transform="matrix(-0.1703682839870453,-0.583483874797821,0.583483874797821,-0.1703682839870453,88.9382095336914,3.0899643898010254)"><path fill="rgb(156,39,176)" fill-opacity="1" d=" M30.812999725341797,-41.31800079345703 C30.812999725341797,-41.31800079345703 27.784000396728516,-37.17300033569336 27.784000396728516,-37.17300033569336 C27.64299964904785,-36.97999954223633 27.371999740600586,-36.9379997253418 27.179000854492188,-37.07899856567383 C27.179000854492188,-37.07899856567383 27.070999145507812,-37.15800094604492 27.070999145507812,-37.15800094604492 C26.878000259399414,-37.29899978637695 26.836000442504883,-37.56999969482422 26.976999282836914,-37.76300048828125 C26.976999282836914,-37.76300048828125 30.006000518798828,-41.90800094604492 30.006000518798828,-41.90800094604492 C30.14699935913086,-42.10100173950195 30.417999267578125,-42.143001556396484 30.611000061035156,-42.00199890136719 C30.611000061035156,-42.00199890136719 30.7189998626709,-41.92300033569336 30.7189998626709,-41.92300033569336 C30.91200065612793,-41.78200149536133 30.95400047302246,-41.51100158691406 30.812999725341797,-41.31800079345703z"></path></g><g opacity="1" transform="matrix(-0.4821532964706421,0.3701446056365967,-0.3701446056365967,-0.4821532964706421,-62.33771896362305,30.315824508666992)"><path fill="rgb(156,39,176)" fill-opacity="1" d=" M-31.3799991607666,40.88999938964844 C-31.3799991607666,40.88999938964844 -28.29400062561035,36.7869987487793 -28.29400062561035,36.7869987487793 C-28.149999618530273,36.59600067138672 -27.878999710083008,36.55699920654297 -27.687999725341797,36.70100021362305 C-27.687999725341797,36.70100021362305 -27.58099937438965,36.78099822998047 -27.58099937438965,36.78099822998047 C-27.389999389648438,36.92499923706055 -27.35099983215332,37.196998596191406 -27.4950008392334,37.38800048828125 C-27.4950008392334,37.38800048828125 -30.58099937438965,41.49100112915039 -30.58099937438965,41.49100112915039 C-30.725000381469727,41.68199920654297 -30.996000289916992,41.720001220703125 -31.187000274658203,41.57600021362305 C-31.187000274658203,41.57600021362305 -31.29400062561035,41.49599838256836 -31.29400062561035,41.49599838256836 C-31.485000610351562,41.35200119018555 -31.52400016784668,41.08100128173828 -31.3799991607666,40.88999938964844z"></path></g><g opacity="1" transform="matrix(0.06578823179006577,-0.6042770147323608,0.6042770147323608,0.06578823179006577,11.112991333007812,-36.08271026611328)"><path fill="rgb(233,30,99)" fill-opacity="1" d=" M14.84000015258789,49.36000061035156 C14.84000015258789,49.36000061035156 13.314000129699707,44.45800018310547 13.314000129699707,44.45800018310547 C13.243000030517578,44.22999954223633 13.371000289916992,43.98699951171875 13.598999977111816,43.91600036621094 C13.598999977111816,43.91600036621094 13.72700023651123,43.875999450683594 13.72700023651123,43.875999450683594 C13.954999923706055,43.80500030517578 14.197999954223633,43.93299865722656 14.269000053405762,44.1609992980957 C14.269000053405762,44.1609992980957 15.795000076293945,49.0629997253418 15.795000076293945,49.0629997253418 C15.866000175476074,49.29100036621094 15.73799991607666,49.534000396728516 15.510000228881836,49.60499954223633 C15.510000228881836,49.60499954223633 15.381999969482422,49.64500045776367 15.381999969482422,49.64500045776367 C15.154000282287598,49.715999603271484 14.91100025177002,49.5880012512207 14.84000015258789,49.36000061035156z"></path></g><g opacity="1" transform="matrix(0.6049807667732239,0.05896695330739021,-0.05896695330739021,0.6049807667732239,46.391300201416016,-47.264766693115234)"><path fill="rgb(233,30,99)" fill-opacity="1" d=" M14.84000015258789,49.36000061035156 C14.84000015258789,49.36000061035156 13.314000129699707,44.45800018310547 13.314000129699707,44.45800018310547 C13.243000030517578,44.22999954223633 13.371000289916992,43.98699951171875 13.598999977111816,43.91600036621094 C13.598999977111816,43.91600036621094 13.72700023651123,43.875999450683594 13.72700023651123,43.875999450683594 C13.954999923706055,43.80500030517578 14.197999954223633,43.93299865722656 14.269000053405762,44.1609992980957 C14.269000053405762,44.1609992980957 15.795000076293945,49.0629997253418 15.795000076293945,49.0629997253418 C15.866000175476074,49.29100036621094 15.73799991607666,49.534000396728516 15.510000228881836,49.60499954223633 C15.510000228881836,49.60499954223633 15.381999969482422,49.64500045776367 15.381999969482422,49.64500045776367 C15.154000282287598,49.715999603271484 14.91100025177002,49.5880012512207 14.84000015258789,49.36000061035156z"></path></g><g opacity="1" transform="matrix(-0.5026620030403137,-0.3417743742465973,0.3417743742465973,-0.5026620030403137,54.93045425415039,-48.28712463378906)"><path fill="rgb(156,39,176)" fill-opacity="1" d=" M30.812999725341797,-41.31800079345703 C30.812999725341797,-41.31800079345703 27.784000396728516,-37.17300033569336 27.784000396728516,-37.17300033569336 C27.64299964904785,-36.97999954223633 27.371999740600586,-36.9379997253418 27.179000854492188,-37.07899856567383 C27.179000854492188,-37.07899856567383 27.070999145507812,-37.15800094604492 27.070999145507812,-37.15800094604492 C26.878000259399414,-37.29899978637695 26.836000442504883,-37.56999969482422 26.976999282836914,-37.76300048828125 C26.976999282836914,-37.76300048828125 30.006000518798828,-41.90800094604492 30.006000518798828,-41.90800094604492 C30.14699935913086,-42.10100173950195 30.417999267578125,-42.143001556396484 30.611000061035156,-42.00199890136719 C30.611000061035156,-42.00199890136719 30.7189998626709,-41.92300033569336 30.7189998626709,-41.92300033569336 C30.91200065612793,-41.78200149536133 30.95400047302246,-41.51100158691406 30.812999725341797,-41.31800079345703z"></path></g><g opacity="1" transform="matrix(0.06212859973311424,0.6046642661094666,-0.6046642661094666,0.06212859973311424,-18.233821868896484,-43.1148681640625)"><path fill="rgb(3,169,244)" fill-opacity="1" d=" M0.5,-51.540000915527344 C0.5,-51.540000915527344 0.5,-46.40599822998047 0.5,-46.40599822998047 C0.5,-46.16699981689453 0.3059999942779541,-45.972999572753906 0.06700000166893005,-45.972999572753906 C0.06700000166893005,-45.972999572753906 -0.06700000166893005,-45.972999572753906 -0.06700000166893005,-45.972999572753906 C-0.3059999942779541,-45.972999572753906 -0.5,-46.16699981689453 -0.5,-46.40599822998047 C-0.5,-46.40599822998047 -0.5,-51.540000915527344 -0.5,-51.540000915527344 C-0.5,-51.77899932861328 -0.3059999942779541,-51.972999572753906 -0.06700000166893005,-51.972999572753906 C-0.06700000166893005,-51.972999572753906 0.06700000166893005,-51.972999572753906 0.06700000166893005,-51.972999572753906 C0.3059999942779541,-51.972999572753906 0.5,-51.77899932861328 0.5,-51.540000915527344z"></path></g><g opacity="1" transform="matrix(-0.2837368845939636,-0.5375613570213318,0.5375613570213318,-0.2837368845939636,69.18903350830078,0.7243871688842773)"><path fill="rgb(139,195,74)" fill-opacity="1" d=" M16.469999313354492,-48.840999603271484 C16.469999313354492,-48.840999603271484 14.876999855041504,-43.959999084472656 14.876999855041504,-43.959999084472656 C14.803000450134277,-43.733001708984375 14.557999610900879,-43.60900115966797 14.331000328063965,-43.68299865722656 C14.331000328063965,-43.68299865722656 14.20300006866455,-43.7239990234375 14.20300006866455,-43.7239990234375 C13.97599983215332,-43.79800033569336 13.85200023651123,-44.042999267578125 13.925999641418457,-44.27000045776367 C13.925999641418457,-44.27000045776367 15.519000053405762,-49.1510009765625 15.519000053405762,-49.1510009765625 C15.593000411987305,-49.37799835205078 15.838000297546387,-49.50199890136719 16.065000534057617,-49.428001403808594 C16.065000534057617,-49.428001403808594 16.191999435424805,-49.387001037597656 16.191999435424805,-49.387001037597656 C16.41900062561035,-49.3129997253418 16.54400062561035,-49.06800079345703 16.469999313354492,-48.840999603271484z"></path></g><g opacity="1" transform="matrix(-0.1703682839870453,-0.583483874797821,0.583483874797821,-0.1703682839870453,67.92321014404297,-2.6650352478027344)"><path fill="rgb(156,39,176)" fill-opacity="1" d=" M30.812999725341797,-41.31800079345703 C30.812999725341797,-41.31800079345703 27.784000396728516,-37.17300033569336 27.784000396728516,-37.17300033569336 C27.64299964904785,-36.97999954223633 27.371999740600586,-36.9379997253418 27.179000854492188,-37.07899856567383 C27.179000854492188,-37.07899856567383 27.070999145507812,-37.15800094604492 27.070999145507812,-37.15800094604492 C26.878000259399414,-37.29899978637695 26.836000442504883,-37.56999969482422 26.976999282836914,-37.76300048828125 C26.976999282836914,-37.76300048828125 30.006000518798828,-41.90800094604492 30.006000518798828,-41.90800094604492 C30.14699935913086,-42.10100173950195 30.417999267578125,-42.143001556396484 30.611000061035156,-42.00199890136719 C30.611000061035156,-42.00199890136719 30.7189998626709,-41.92300033569336 30.7189998626709,-41.92300033569336 C30.91200065612793,-41.78200149536133 30.95400047302246,-41.51100158691406 30.812999725341797,-41.31800079345703z"></path></g><g opacity="1" transform="matrix(-0.39549827575683594,-0.4615841507911682,0.4615841507911682,-0.39549827575683594,70.79462432861328,-22.504114151000977)"><path fill="rgb(255,193,7)" fill-opacity="1" d=" M42.11399841308594,-29.715999603271484 C42.11399841308594,-29.715999603271484 37.948001861572266,-26.715999603271484 37.948001861572266,-26.715999603271484 C37.75400161743164,-26.576000213623047 37.48400115966797,-26.6200008392334 37.34400177001953,-26.81399917602539 C37.34400177001953,-26.81399917602539 37.26599884033203,-26.92300033569336 37.26599884033203,-26.92300033569336 C37.125999450683594,-27.117000579833984 37.16999816894531,-27.386999130249023 37.36399841308594,-27.527000427246094 C37.36399841308594,-27.527000427246094 41.529998779296875,-30.527999877929688 41.529998779296875,-30.527999877929688 C41.7239990234375,-30.667999267578125 41.99399948120117,-30.62299919128418 42.13399887084961,-30.429000854492188 C42.13399887084961,-30.429000854492188 42.2130012512207,-30.320999145507812 42.2130012512207,-30.320999145507812 C42.35300064086914,-30.12700080871582 42.30799865722656,-29.856000900268555 42.11399841308594,-29.715999603271484z"></path></g><g opacity="1" transform="matrix(-0.11396557092666626,-0.5970683693885803,0.5970683693885803,-0.11396557092666626,56.789424896240234,29.704872131347656)"><path fill="rgb(3,169,244)" fill-opacity="1" d=" M51.5359992980957,0.8550000190734863 C51.5359992980957,0.8550000190734863 46.402000427246094,0.8199999928474426 46.402000427246094,0.8199999928474426 C46.16299819946289,0.8180000185966492 45.970001220703125,0.6230000257492065 45.97200012207031,0.3840000033378601 C45.97200012207031,0.3840000033378601 45.972999572753906,0.25 45.972999572753906,0.25 C45.974998474121094,0.010999999940395355 46.16999816894531,-0.18199999630451202 46.409000396728516,-0.18000000715255737 C46.409000396728516,-0.18000000715255737 51.542999267578125,-0.14499999582767487 51.542999267578125,-0.14499999582767487 C51.78200149536133,-0.14300000667572021 51.974998474121094,0.052000001072883606 51.972999572753906,0.29100000858306885 C51.972999572753906,0.29100000858306885 51.97200012207031,0.42500001192092896 51.97200012207031,0.42500001192092896 C51.970001220703125,0.6639999747276306 51.775001525878906,0.8569999933242798 51.5359992980957,0.8550000190734863z"></path></g><g opacity="1" transform="matrix(0.34675198793411255,-0.49924129247665405,0.49924129247665405,0.34675198793411255,25.222116470336914,34.12472152709961)"><path fill="rgb(139,195,74)" fill-opacity="1" d=" M48.72600173950195,16.805999755859375 C48.72600173950195,16.805999755859375 43.856998443603516,15.178999900817871 43.856998443603516,15.178999900817871 C43.630001068115234,15.102999687194824 43.50699996948242,14.857999801635742 43.58300018310547,14.630999565124512 C43.58300018310547,14.630999565124512 43.625,14.503999710083008 43.625,14.503999710083008 C43.70100021362305,14.277000427246094 43.94599914550781,14.154999732971191 44.17300033569336,14.230999946594238 C44.17300033569336,14.230999946594238 49.042999267578125,15.857999801635742 49.042999267578125,15.857999801635742 C49.27000045776367,15.934000015258789 49.391998291015625,16.179000854492188 49.316001892089844,16.4060001373291 C49.316001892089844,16.4060001373291 49.27399826049805,16.533000946044922 49.27399826049805,16.533000946044922 C49.198001861572266,16.760000228881836 48.952999114990234,16.881999969482422 48.72600173950195,16.805999755859375z"></path></g><g opacity="1" transform="matrix(0.12109480798244476,0.5956633687019348,-0.5956633687019348,0.12109480798244476,54.785301208496094,-2.3151397705078125)"><path fill="rgb(156,39,176)" fill-opacity="1" d=" M41.10499954223633,31.097000122070312 C41.10499954223633,31.097000122070312 36.98099899291992,28.040000915527344 36.98099899291992,28.040000915527344 C36.78900146484375,27.898000717163086 36.749000549316406,27.625999450683594 36.89099884033203,27.43400001525879 C36.89099884033203,27.43400001525879 36.97100067138672,27.326000213623047 36.97100067138672,27.326000213623047 C37.112998962402344,27.134000778198242 37.38399887084961,27.0939998626709 37.57600021362305,27.236000061035156 C37.57600021362305,27.236000061035156 41.70000076293945,30.29400062561035 41.70000076293945,30.29400062561035 C41.891998291015625,30.43600082397461 41.93199920654297,30.70800018310547 41.790000915527344,30.899999618530273 C41.790000915527344,30.899999618530273 41.71099853515625,31.006999969482422 41.71099853515625,31.006999969482422 C41.569000244140625,31.198999404907227 41.297000885009766,31.23900032043457 41.10499954223633,31.097000122070312z"></path></g><g opacity="1" transform="matrix(-0.588711678981781,0.15131869912147522,-0.15131869912147522,-0.588711678981781,71.50696563720703,55.813899993896484)"><path fill="rgb(255,193,7)" fill-opacity="1" d=" M29.424999237060547,42.31800079345703 C29.424999237060547,42.31800079345703 26.452999114990234,38.13199996948242 26.452999114990234,38.13199996948242 C26.315000534057617,37.9370002746582 26.361000061035156,37.66600036621094 26.555999755859375,37.52799987792969 C26.555999755859375,37.52799987792969 26.665000915527344,37.45000076293945 26.665000915527344,37.45000076293945 C26.860000610351562,37.3120002746582 27.131000518798828,37.358001708984375 27.268999099731445,37.553001403808594 C27.268999099731445,37.553001403808594 30.240999221801758,41.73899841308594 30.240999221801758,41.73899841308594 C30.378999710083008,41.933998107910156 30.33300018310547,42.20500183105469 30.13800048828125,42.34299850463867 C30.13800048828125,42.34299850463867 30.02899932861328,42.42100143432617 30.02899932861328,42.42100143432617 C29.833999633789062,42.558998107910156 29.562999725341797,42.51300048828125 29.424999237060547,42.31800079345703z"></path></g><g opacity="1" transform="matrix(0.5461386442184448,-0.2668546736240387,0.2668546736240387,0.5461386442184448,-73.94563293457031,-62.711692810058594)"><path fill="rgb(233,30,99)" fill-opacity="1" d=" M14.84000015258789,49.36000061035156 C14.84000015258789,49.36000061035156 13.314000129699707,44.45800018310547 13.314000129699707,44.45800018310547 C13.243000030517578,44.22999954223633 13.371000289916992,43.98699951171875 13.598999977111816,43.91600036621094 C13.598999977111816,43.91600036621094 13.72700023651123,43.875999450683594 13.72700023651123,43.875999450683594 C13.954999923706055,43.80500030517578 14.197999954223633,43.93299865722656 14.269000053405762,44.1609992980957 C14.269000053405762,44.1609992980957 15.795000076293945,49.0629997253418 15.795000076293945,49.0629997253418 C15.866000175476074,49.29100036621094 15.73799991607666,49.534000396728516 15.510000228881836,49.60499954223633 C15.510000228881836,49.60499954223633 15.381999969482422,49.64500045776367 15.381999969482422,49.64500045776367 C15.154000282287598,49.715999603271484 14.91100025177002,49.5880012512207 14.84000015258789,49.36000061035156z"></path></g><g opacity="1" transform="matrix(-0.11124493926763535,0.5975812673568726,-0.5975812673568726,-0.11124493926763535,-23.3718318939209,41.221614837646484)"><path fill="rgb(3,169,244)" fill-opacity="1" d=" M-1.2109999656677246,51.52899932861328 C-1.2109999656677246,51.52899932861328 -1.1399999856948853,46.39500045776367 -1.1399999856948853,46.39500045776367 C-1.1369999647140503,46.15599822998047 -0.9399999976158142,45.96500015258789 -0.7009999752044678,45.96799850463867 C-0.7009999752044678,45.96799850463867 -0.5669999718666077,45.970001220703125 -0.5669999718666077,45.970001220703125 C-0.328000009059906,45.972999572753906 -0.13699999451637268,46.16999816894531 -0.14000000059604645,46.409000396728516 C-0.14000000059604645,46.409000396728516 -0.210999995470047,51.54199981689453 -0.210999995470047,51.54199981689453 C-0.21400000154972076,51.78099822998047 -0.41100001335144043,51.97200012207031 -0.6499999761581421,51.96900177001953 C-0.6499999761581421,51.96900177001953 -0.7839999794960022,51.96799850463867 -0.7839999794960022,51.96799850463867 C-1.0230000019073486,51.96500015258789 -1.2139999866485596,51.768001556396484 -1.2109999656677246,51.52899932861328z"></path></g><g opacity="1" transform="matrix(-0.28128552436828613,0.5388481020927429,-0.5388481020927429,-0.28128552436828613,-35.28788757324219,1.8607101440429688)"><path fill="rgb(139,195,74)" fill-opacity="1" d=" M-17.142000198364258,48.60900115966797 C-17.142000198364258,48.60900115966797 -15.480999946594238,43.750999450683594 -15.480999946594238,43.750999450683594 C-15.404000282287598,43.525001525878906 -15.156999588012695,43.40399932861328 -14.930999755859375,43.48099899291992 C-14.930999755859375,43.48099899291992 -14.805000305175781,43.52399826049805 -14.805000305175781,43.52399826049805 C-14.579000473022461,43.60100173950195 -14.458000183105469,43.847999572753906 -14.53499984741211,44.07400131225586 C-14.53499984741211,44.07400131225586 -16.19499969482422,48.93199920654297 -16.19499969482422,48.93199920654297 C-16.27199935913086,49.15800094604492 -16.518999099731445,49.27899932861328 -16.7450008392334,49.20199966430664 C-16.7450008392334,49.20199966430664 -16.871999740600586,49.159000396728516 -16.871999740600586,49.159000396728516 C-17.097999572753906,49.082000732421875 -17.2189998626709,48.834999084472656 -17.142000198364258,48.60900115966797z"></path></g><g opacity="1" transform="matrix(-0.4821532964706421,0.3701446056365967,-0.3701446056365967,-0.4821532964706421,-37.20471954345703,34.05382537841797)"><path fill="rgb(156,39,176)" fill-opacity="1" d=" M-31.3799991607666,40.88999938964844 C-31.3799991607666,40.88999938964844 -28.29400062561035,36.7869987487793 -28.29400062561035,36.7869987487793 C-28.149999618530273,36.59600067138672 -27.878999710083008,36.55699920654297 -27.687999725341797,36.70100021362305 C-27.687999725341797,36.70100021362305 -27.58099937438965,36.78099822998047 -27.58099937438965,36.78099822998047 C-27.389999389648438,36.92499923706055 -27.35099983215332,37.196998596191406 -27.4950008392334,37.38800048828125 C-27.4950008392334,37.38800048828125 -30.58099937438965,41.49100112915039 -30.58099937438965,41.49100112915039 C-30.725000381469727,41.68199920654297 -30.996000289916992,41.720001220703125 -31.187000274658203,41.57600021362305 C-31.187000274658203,41.57600021362305 -31.29400062561035,41.49599838256836 -31.29400062561035,41.49599838256836 C-31.485000610351562,41.35200119018555 -31.52400016784668,41.08100128173828 -31.3799991607666,40.88999938964844z"></path></g><g opacity="1" transform="matrix(-0.24053077399730682,0.5582327246665955,-0.5582327246665955,-0.24053077399730682,-33.722328186035156,57.27605438232422)"><path fill="rgb(255,193,7)" fill-opacity="1" d=" M-42.52000045776367,29.132999420166016 C-42.52000045776367,29.132999420166016 -38.3129997253418,26.190000534057617 -38.3129997253418,26.190000534057617 C-38.117000579833984,26.05299949645996 -37.84700012207031,26.10099983215332 -37.709999084472656,26.297000885009766 C-37.709999084472656,26.297000885009766 -37.632999420166016,26.4060001373291 -37.632999420166016,26.4060001373291 C-37.49599838256836,26.601999282836914 -37.54399871826172,26.871999740600586 -37.7400016784668,27.009000778198242 C-37.7400016784668,27.009000778198242 -41.946998596191406,29.95199966430664 -41.946998596191406,29.95199966430664 C-42.143001556396484,30.089000701904297 -42.41299819946289,30.04199981689453 -42.54999923706055,29.84600067138672 C-42.54999923706055,29.84600067138672 -42.62699890136719,29.736000061035156 -42.62699890136719,29.736000061035156 C-42.763999938964844,29.540000915527344 -42.715999603271484,29.270000457763672 -42.52000045776367,29.132999420166016z"></path></g><g opacity="1" transform="matrix(-0.5798607468605042,0.1823192685842514,-0.1823192685842514,-0.5798607468605042,-71.72570037841797,31.73529624938965)"><path fill="rgb(233,30,99)" fill-opacity="1" d=" M-49.46099853515625,14.49899959564209 C-49.46099853515625,14.49899959564209 -44.54899978637695,13.006999969482422 -44.54899978637695,13.006999969482422 C-44.31999969482422,12.937999725341797 -44.077999114990234,13.067000389099121 -44.00899887084961,13.295999526977539 C-44.00899887084961,13.295999526977539 -43.970001220703125,13.423999786376953 -43.970001220703125,13.423999786376953 C-43.9010009765625,13.652999877929688 -44.02899932861328,13.895000457763672 -44.257999420166016,13.96399974822998 C-44.257999420166016,13.96399974822998 -49.17100143432617,15.456000328063965 -49.17100143432617,15.456000328063965 C-49.400001525878906,15.524999618530273 -49.641998291015625,15.397000312805176 -49.71099853515625,15.168000221252441 C-49.71099853515625,15.168000221252441 -49.75,15.038999557495117 -49.75,15.038999557495117 C-49.819000244140625,14.8100004196167 -49.689998626708984,14.567999839782715 -49.46099853515625,14.49899959564209z"></path></g><g opacity="1" transform="matrix(0.06212859973311424,0.6046642661094666,-0.6512987613677979,0.06692024320363998,-46.677886962890625,29.017709732055664)"><path fill="rgb(3,169,244)" fill-opacity="1" d=" M-51.51900100708008,-1.565999984741211 C-51.51900100708008,-1.565999984741211 -46.38600158691406,-1.4600000381469727 -46.38600158691406,-1.4600000381469727 C-46.14699935913086,-1.4550000429153442 -45.957000732421875,-1.2569999694824219 -45.96200180053711,-1.0180000066757202 C-45.96200180053711,-1.0180000066757202 -45.96500015258789,-0.8840000033378601 -45.96500015258789,-0.8840000033378601 C-45.970001220703125,-0.6449999809265137 -46.167999267578125,-0.45500001311302185 -46.40700149536133,-0.46000000834465027 C-46.40700149536133,-0.46000000834465027 -51.540000915527344,-0.5659999847412109 -51.540000915527344,-0.5659999847412109 C-51.77899932861328,-0.5709999799728394 -51.96900177001953,-0.7689999938011169 -51.9640007019043,-1.0080000162124634 C-51.9640007019043,-1.0080000162124634 -51.96099853515625,-1.1419999599456787 -51.96099853515625,-1.1419999599456787 C-51.95600128173828,-1.38100004196167 -51.757999420166016,-1.5709999799728394 -51.51900100708008,-1.565999984741211z"></path></g><g opacity="1" transform="matrix(-0.39549827575683594,-0.4615841507911682,0.4615841507911682,-0.39549827575683594,-50.14772415161133,-41.69792175292969)"><path fill="rgb(139,195,74)" fill-opacity="1" d=" M-48.4900016784668,-17.47599983215332 C-48.4900016784668,-17.47599983215332 -43.643001556396484,-15.782999992370605 -43.643001556396484,-15.782999992370605 C-43.41699981689453,-15.704000473022461 -43.29800033569336,-15.456999778747559 -43.37699890136719,-15.230999946594238 C-43.37699890136719,-15.230999946594238 -43.42100143432617,-15.104000091552734 -43.42100143432617,-15.104000091552734 C-43.5,-14.878000259399414 -43.74700164794922,-14.760000228881836 -43.972999572753906,-14.83899974822998 C-43.972999572753906,-14.83899974822998 -48.819000244140625,-16.531999588012695 -48.819000244140625,-16.531999588012695 C-49.04499816894531,-16.611000061035156 -49.16400146484375,-16.857999801635742 -49.084999084472656,-17.083999633789062 C-49.084999084472656,-17.083999633789062 -49.04100036621094,-17.209999084472656 -49.04100036621094,-17.209999084472656 C-48.96200180053711,-17.43600082397461 -48.715999603271484,-17.55500030517578 -48.4900016784668,-17.47599983215332z"></path></g><g opacity="1" transform="matrix(-0.39549827575683594,-0.4615841507911682,0.4615841507911682,-0.39549827575683594,-40.10857391357422,-61.07856369018555)"><path fill="rgb(156,39,176)" fill-opacity="1" d=" M-40.672000885009766,-31.660999298095703 C-40.672000885009766,-31.660999298095703 -36.590999603271484,-28.547000885009766 -36.590999603271484,-28.547000885009766 C-36.4010009765625,-28.402000427246094 -36.36399841308594,-28.1299991607666 -36.50899887084961,-27.940000534057617 C-36.50899887084961,-27.940000534057617 -36.59000015258789,-27.833999633789062 -36.59000015258789,-27.833999633789062 C-36.73500061035156,-27.643999099731445 -37.00699996948242,-27.60700035095215 -37.196998596191406,-27.75200080871582 C-37.196998596191406,-27.75200080871582 -41.27899932861328,-30.865999221801758 -41.27899932861328,-30.865999221801758 C-41.46900177001953,-31.01099967956543 -41.505001068115234,-31.283000946044922 -41.36000061035156,-31.472999572753906 C-41.36000061035156,-31.472999572753906 -41.27899932861328,-31.579999923706055 -41.27899932861328,-31.579999923706055 C-41.13399887084961,-31.770000457763672 -40.86199951171875,-31.805999755859375 -40.672000885009766,-31.660999298095703z"></path></g><g opacity="1" transform="matrix(-0.1427721381187439,0.5908425450325012,-0.5908425450325012,-0.1427721381187439,-55.13918685913086,-29.621599197387695)"><path fill="rgb(255,193,7)" fill-opacity="1" d=" M-28.839000701904297,-42.720001220703125 C-28.839000701904297,-42.720001220703125 -25.924999237060547,-38.49300003051758 -25.924999237060547,-38.49300003051758 C-25.788999557495117,-38.29600143432617 -25.839000701904297,-38.0260009765625 -26.035999298095703,-37.88999938964844 C-26.035999298095703,-37.88999938964844 -26.145999908447266,-37.81399917602539 -26.145999908447266,-37.81399917602539 C-26.343000411987305,-37.678001403808594 -26.613000869750977,-37.72800064086914 -26.749000549316406,-37.92499923706055 C-26.749000549316406,-37.92499923706055 -29.66200065612793,-42.152000427246094 -29.66200065612793,-42.152000427246094 C-29.79800033569336,-42.3489990234375 -29.74799919128418,-42.61899948120117 -29.551000595092773,-42.755001068115234 C-29.551000595092773,-42.755001068115234 -29.44099998474121,-42.83100128173828 -29.44099998474121,-42.83100128173828 C-29.243999481201172,-42.96699905395508 -28.975000381469727,-42.91699981689453 -28.839000701904297,-42.720001220703125z"></path></g><g opacity="1" transform="matrix(0.13569897413253784,-0.5925070643424988,0.5925070643424988,0.13569897413253784,63.955665588378906,-52.84083938598633)"><path fill="rgb(233,30,99)" fill-opacity="1" d=" M-38.180999755859375,-124.55999755859375 C-38.180999755859375,-124.55999755859375 -36.722999572753906,-119.63800048828125 -36.722999572753906,-119.63800048828125 C-36.654998779296875,-119.40899658203125 -36.7869987487793,-119.16699981689453 -37.01599884033203,-119.0989990234375 C-37.01599884033203,-119.0989990234375 -37.14400100708008,-119.06099700927734 -37.14400100708008,-119.06099700927734 C-37.37300109863281,-118.99299621582031 -37.61399841308594,-119.125 -37.68199920654297,-119.35399627685547 C-37.68199920654297,-119.35399627685547 -39.13999938964844,-124.2760009765625 -39.13999938964844,-124.2760009765625 C-39.20800018310547,-124.50499725341797 -39.07699966430664,-124.74600219726562 -38.847999572753906,-124.81400299072266 C-38.847999572753906,-124.81400299072266 -38.720001220703125,-124.85199737548828 -38.720001220703125,-124.85199737548828 C-38.49100112915039,-124.91999816894531 -38.249000549316406,-124.78900146484375 -38.180999755859375,-124.55999755859375z"></path></g></g><g style="display: block;" transform="matrix(1,0,0,1,90,69.75)" opacity="1"><g opacity="1" transform="matrix(1,0,0,1,0,0)"><g opacity="1" transform="matrix(1,0,0,1,0,0)"><g opacity="1" transform="matrix(1,0,0,1,0,0)"><path fill="rgb(139,195,74)" fill-opacity="1" d=" M-4.059999942779541,7.964000225067139 C-5.125,11.479000091552734 -8.836000442504883,13.463000297546387 -12.350000381469727,12.401000022888184 C-15.86400032043457,11.336999893188477 -17.849000930786133,7.626999855041504 -16.78700065612793,4.111999988555908 C-15.722999572753906,0.5979999899864197 -12.01200008392334,-1.3890000581741333 -8.496999740600586,-0.32600000500679016 C-4.982999801635742,0.7390000224113464 -2.996999979019165,4.449999809265137 -4.059999942779541,7.964000225067139"></path></g><g opacity="1" transform="matrix(1,0,0,1,0,0)"><path fill="rgb(255,255,255)" fill-opacity="1" d=" M-9.805000305175781,0.9229999780654907 C-10.164999961853027,1.7280000448226929 -6.551000118255615,3.552999973297119 -6.169000148773193,2.4590001106262207 C-5.788000106811523,1.3660000562667847 -9.175000190734863,-0.49399998784065247 -9.805000305175781,0.9229999780654907z"></path></g></g><g opacity="1" transform="matrix(1,0,0,1,0,0)"><g opacity="1" transform="matrix(1,0,0,1,0,0)"><path fill="rgb(255,193,7)" fill-opacity="1" d=" M7.020999908447266,8.468999862670898 C6.50600004196167,12.104999542236328 3.1419999599456787,14.635000228881836 -0.49300000071525574,14.123000144958496 C-4.127999782562256,13.607999801635742 -6.6579999923706055,10.246999740600586 -6.146999835968018,6.611000061035156 C-5.632999897003174,2.9749999046325684 -2.2709999084472656,0.4440000057220459 1.3650000095367432,0.9559999704360962 C5.000999927520752,1.4700000286102295 7.5329999923706055,4.833000183105469 7.020999908447266,8.468999862670898"></path></g><g opacity="1" transform="matrix(1,0,0,1,0,0)"><path fill="rgb(255,255,255)" fill-opacity="1" d=" M0.2639999985694885,2.3910000324249268 C0.03200000151991844,3.242000102996826 3.881999969482422,4.491000175476074 4.0920000076293945,3.3519999980926514 C4.302000045776367,2.2130000591278076 0.6700000166893005,0.8949999809265137 0.2639999985694885,2.3910000324249268z"></path></g></g><g opacity="1" transform="matrix(1,0,0,1,0,0)"><g opacity="1" transform="matrix(1,0,0,1,0,0)"><path fill="rgb(233,30,99)" fill-opacity="1" d=" M25.979000091552734,0.5199999809265137 C27.426000595092773,3.8949999809265137 25.86400032043457,7.802999973297119 22.489999771118164,9.251999855041504 C19.115999221801758,10.697999954223633 15.208000183105469,9.137999534606934 13.758999824523926,5.764999866485596 C12.312000274658203,2.390000104904175 13.873000144958496,-1.5199999809265137 17.246999740600586,-2.9690001010894775 C20.621000289916992,-4.415999889373779 24.530000686645508,-2.8540000915527344 25.979000091552734,0.5199999809265137"></path></g><g opacity="1" transform="matrix(1,0,0,1,0,0)"><path fill="rgb(255,255,255)" fill-opacity="1" d=" M17.049999237060547,-1.1699999570846558 C17.29199981689453,-0.32199999690055847 21.23200035095215,-1.253000020980835 20.81999969482422,-2.3350000381469727 C20.408000946044922,-3.4179999828338623 16.6200008392334,-2.6600000858306885 17.049999237060547,-1.1699999570846558z"></path></g></g><g opacity="1" transform="matrix(1,0,0,1,0,0)"><g opacity="1" transform="matrix(1,0,0,1,0,0)"><path fill="rgb(156,39,176)" fill-opacity="1" d=" M15.645999908447266,1.4019999504089355 C18.39900016784668,3.8310000896453857 18.663000106811523,8.031000137329102 16.235000610351562,10.78600025177002 C13.805999755859375,13.538999557495117 9.607000350952148,13.803999900817871 6.8520002365112305,11.376999855041504 C4.0980000495910645,8.947999954223633 3.8340001106262207,4.747000217437744 6.261000156402588,1.9919999837875366 C8.690999984741211,-0.7609999775886536 12.890999794006348,-1.0260000228881836 15.645999908447266,1.4019999504089355"></path></g><g opacity="1" transform="matrix(1,0,0,1,0,0)"><path fill="rgb(255,255,255)" fill-opacity="1" d=" M6.854000091552734,3.7009999752044678 C7.436999797821045,4.36299991607666 10.597999572753906,1.8339999914169312 9.76200008392334,1.0329999923706055 C8.925999641418457,0.23100000619888306 5.828000068664551,2.5390000343322754 6.854000091552734,3.7009999752044678"></path></g></g><g opacity="1" transform="matrix(1,0,0,1,0,0)"><g opacity="1" transform="matrix(1,0,0,1,0,0)"><path fill="rgb(240,98,146)" fill-opacity="1" d=" M-3.8540000915527344,17.81399917602539 C-6.545000076293945,20.31100082397461 -10.751999855041504,20.1560001373291 -13.25100040435791,17.465999603271484 C-15.748000144958496,14.774999618530273 -15.592000007629395,10.569000244140625 -12.902999877929688,8.069999694824219 C-10.211000442504883,5.572000026702881 -6.00600004196167,5.728000164031982 -3.50600004196167,8.418000221252441 C-1.0089999437332153,11.109000205993652 -1.1640000343322754,15.3149995803833 -3.8540000915527344,17.81399917602539"></path></g><g opacity="1" transform="matrix(1,0,0,1,0,0)"><path fill="rgb(255,255,255)" fill-opacity="1" d=" M-5.264999866485596,8.838000297546387 C-5.98199987411499,9.35200023651123 -3.7799999713897705,12.74899959564209 -2.8989999294281006,11.996999740600586 C-2.0190000534057617,11.246000289916992 -4.006999969482422,7.933000087738037 -5.264999866485596,8.838000297546387"></path></g></g><g opacity="1" transform="matrix(1,0,0,1,0,0)"><g opacity="1" transform="matrix(1,0,0,1,0,0)"><path fill="rgb(3,169,244)" fill-opacity="1" d=" M6.853000164031982,19.077999114990234 C6.242000102996826,22.697999954223633 2.812000036239624,25.13800048828125 -0.8090000152587891,24.52899932861328 C-4.428999900817871,23.91699981689453 -6.868000030517578,20.488000869750977 -6.260000228881836,16.868000030517578 C-5.64900016784668,13.246999740600586 -2.2200000286102295,10.807000160217285 1.4019999504089355,11.416000366210938 C5.021999835968018,12.027999877929688 7.461999893188477,15.458000183105469 6.853000164031982,19.077999114990234"></path></g><g opacity="1" transform="matrix(1,0,0,1,0,0)"><path fill="rgb(255,255,255)" fill-opacity="1" d=" M0.2619999945163727,12.821000099182129 C0.007000000216066837,13.664999961853027 3.822000026702881,15.017000198364258 4.061999797821045,13.885000228881836 C4.302000045776367,12.751999855041504 0.7080000042915344,11.336000442504883 0.2619999945163727,12.821000099182129z"></path></g></g><g opacity="1" transform="matrix(1,0,0,1,0,0)"><g opacity="1" transform="matrix(1,0,0,1,0,0)"><path fill="rgb(139,195,74)" fill-opacity="1" d=" M15.982999801635742,13.618000030517578 C17.097999572753906,17.114999771118164 15.170000076293945,20.85700035095215 11.67300033569336,21.975000381469727 C8.175000190734863,23.090999603271484 4.434000015258789,21.16200065612793 3.315999984741211,17.665000915527344 C2.1989998817443848,14.166999816894531 4.129000186920166,10.425999641418457 7.625999927520752,9.307999610900879 C11.12399959564209,8.192000389099121 14.86400032043457,10.121000289916992 15.982999801635742,13.618000030517578"></path></g><g opacity="1" transform="matrix(1,0,0,1,0,0)"><path fill="rgb(255,255,255)" fill-opacity="1" d=" M7.256999969482422,11.079000473022461 C7.416999816894531,11.944999694824219 11.428000450134277,11.397000312805176 11.121999740600586,10.281000137329102 C10.815999984741211,9.163999557495117 6.9730000495910645,9.555000305175781 7.256999969482422,11.079000473022461"></path></g></g><g opacity="1" transform="matrix(1,0,0,1,0,0)"><g opacity="1" transform="matrix(1,0,0,1,0,0)"><path fill="rgb(240,98,146)" fill-opacity="1" d=" M24.322999954223633,7.171000003814697 C27.04800033569336,9.631999969482422 27.26300048828125,13.835000038146973 24.804000854492188,16.562000274658203 C22.343000411987305,19.28700065612793 18.139999389648438,19.500999450683594 15.413000106811523,17.042999267578125 C12.687000274658203,14.581999778747559 12.472999572753906,10.378000259399414 14.932000160217285,7.651000022888184 C17.393999099731445,4.926000118255615 21.59600067138672,4.711999893188477 24.322999954223633,7.171000003814697"></path></g><g opacity="1" transform="matrix(1,0,0,1,0,0)"><path fill="rgb(255,255,255)" fill-opacity="1" d=" M15.505999565124512,9.366000175476074 C16.079999923706055,10.03499984741211 19.270000457763672,7.543000221252441 18.444000244140625,6.73199987411499 C17.618000030517578,5.920000076293945 14.493000030517578,8.192000389099121 15.505999565124512,9.366000175476074"></path></g></g><g opacity="1" transform="matrix(-0.5150380730628967,-0.8571673035621643,0.8571673035621643,-0.5150380730628967,-33.34451675415039,-13.567622184753418)"><g opacity="1" transform="matrix(1,0,0,1,0,0)"><path fill="rgb(3,169,244)" fill-opacity="1" d=" M-15.538000106811523,8.520000457763672 C-18.229000091552734,11.017000198364258 -22.43600082397461,10.859999656677246 -24.934999465942383,8.170999526977539 C-27.43199920654297,5.480000019073486 -27.274999618530273,1.274999976158142 -24.586000442504883,-1.225000023841858 C-21.895000457763672,-3.7230000495910645 -17.687999725341797,-3.566999912261963 -15.189000129699707,-0.8769999742507935 C-12.690999984741211,1.815000057220459 -12.847999572753906,6.020999908447266 -15.538000106811523,8.520000457763672"></path></g><g opacity="1" transform="matrix(1,0,0,1,0,0)"><path fill="rgb(255,255,255)" fill-opacity="1" d=" M-16.948999404907227,-0.4580000042915344 C-17.666000366210938,0.0560000017285347 -15.46500015258789,3.453000068664551 -14.583999633789062,2.7009999752044678 C-13.70300006866455,1.9500000476837158 -15.6899995803833,-1.3630000352859497 -16.948999404907227,-0.4580000042915344"></path></g></g><g opacity="1" transform="matrix(1,0,0,1,0,0)"><g opacity="1" transform="matrix(1,0,0,1,0,0)"><path fill="rgb(255,193,7)" fill-opacity="1" d=" M-15.270999908447266,16.152000427246094 C-17.961999893188477,18.64900016784668 -22.16900062561035,18.493000030517578 -24.667999267578125,15.803999900817871 C-27.165000915527344,13.11299991607666 -27.009000778198242,8.906000137329102 -24.31999969482422,6.4070000648498535 C-21.628999710083008,3.9089999198913574 -17.42300033569336,4.065999984741211 -14.92300033569336,6.75600004196167 C-12.425999641418457,9.446999549865723 -12.581000328063965,13.652999877929688 -15.270999908447266,16.152000427246094"></path></g><g opacity="1" transform="matrix(1,0,0,1,0,0)"><path fill="rgb(255,255,255)" fill-opacity="1" d=" M-16.683000564575195,7.175000190734863 C-17.399999618530273,7.689000129699707 -15.197999954223633,11.086000442504883 -14.317999839782715,10.333999633789062 C-13.437000274658203,9.581999778747559 -15.425000190734863,6.269999980926514 -16.683000564575195,7.175000190734863"></path></g></g></g><g opacity="1" transform="matrix(1,0,0,1,0,0)"><g opacity="1" transform="matrix(1,0,0,1,0,0)"><g opacity="1" transform="matrix(1,0,0,1,0,0)"><path fill="rgb(233,30,99)" fill-opacity="1" d=" M-13.015000343322754,23.309999465942383 C-14.42300033569336,26.701000213623047 -18.312000274658203,28.308000564575195 -21.70400047302246,26.902999877929688 C-25.094999313354492,25.4950008392334 -26.702999114990234,21.60700035095215 -25.29800033569336,18.21500015258789 C-23.889999389648438,14.822999954223633 -20,13.21399974822998 -16.607999801635742,14.619999885559082 C-13.217000007629395,16.027999877929688 -11.609000205993652,19.91699981689453 -13.015000343322754,23.309999465942383"></path></g><g opacity="1" transform="matrix(1,0,0,1,0,0)"><path fill="rgb(255,255,255)" fill-opacity="1" d=" M-18.034000396728516,15.732999801635742 C-18.472000122070312,16.499000549316406 -15.057000160217285,18.672000885009766 -14.569000244140625,17.621999740600586 C-14.081000328063965,16.57200050354004 -17.266000747680664,14.38599967956543 -18.034000396728516,15.732999801635742"></path></g></g><g opacity="1" transform="matrix(1,0,0,1,0,0)"><g opacity="1" transform="matrix(1,0,0,1,0,0)"><path fill="rgb(240,98,146)" fill-opacity="1" d=" M5.315000057220459,27.32699966430664 C4.916999816894531,30.976999282836914 1.6380000114440918,33.61600112915039 -2.013000011444092,33.220001220703125 C-5.6620001792907715,32.823001861572266 -8.300000190734863,29.542999267578125 -7.90500020980835,25.89299964904785 C-7.507999897003174,22.243000030517578 -4.228000164031982,19.604000091552734 -0.5770000219345093,19.999000549316406 C3.072000026702881,20.39699935913086 5.710000038146973,23.677000045776367 5.315000057220459,27.32699966430664"></path></g><g opacity="1" transform="matrix(1,0,0,1,0,0)"><path fill="rgb(255,255,255)" fill-opacity="1" d=" M-1.63100004196167,21.4689998626709 C-1.8359999656677246,22.32699966430664 2.052999973297119,23.452999114990234 2.2260000705718994,22.30699920654297 C2.3989999294281006,21.16200065612793 -1.2730000019073486,19.961000442504883 -1.63100004196167,21.4689998626709"></path></g></g><g opacity="1" transform="matrix(1,0,0,1,0,0)"><g opacity="1" transform="matrix(1,0,0,1,0,0)"><path fill="rgb(233,30,99)" fill-opacity="1" d=" M-1.1640000343322754,33.465999603271484 C-1.534000039100647,37.11899948120117 -4.794000148773193,39.78099822998047 -8.446999549865723,39.41400146484375 C-12.098999977111816,39.04499816894531 -14.76200008392334,35.7859992980957 -14.395000457763672,32.132999420166016 C-14.026000022888184,28.479999542236328 -10.765999794006348,25.816999435424805 -7.111999988555908,26.18400001525879 C-3.4590001106262207,26.55299949645996 -0.796999990940094,29.812999725341797 -1.1640000343322754,33.465999603271484"></path></g><g opacity="1" transform="matrix(1,0,0,1,0,0)"><path fill="rgb(255,255,255)" fill-opacity="1" d=" M-8.156000137329102,27.660999298095703 C-8.354000091552734,28.520000457763672 -4.456999778747559,29.615999221801758 -4.293000221252441,28.469999313354492 C-4.127999782562256,27.323999404907227 -7.809999942779541,26.149999618530273 -8.156000137329102,27.660999298095703"></path></g></g><g opacity="1" transform="matrix(1,0,0,1,0,0)"><g opacity="1" transform="matrix(1,0,0,1,0,0)"><path fill="rgb(156,39,176)" fill-opacity="1" d=" M-6.077000141143799,24.243000030517578 C-7.771999835968018,27.5 -11.78600025177002,28.766000747680664 -15.043999671936035,27.073999404907227 C-18.299999237060547,25.378999710083008 -19.56800079345703,21.364999771118164 -17.875,18.10700035095215 C-16.18000030517578,14.850000381469727 -12.164999961853027,13.583000183105469 -8.906999588012695,15.276000022888184 C-5.650000095367432,16.97100067138672 -4.383999824523926,20.985000610351562 -6.077000141143799,24.243000030517578"></path></g><g opacity="1" transform="matrix(1,0,0,1,0,0)"><path fill="rgb(255,255,255)" fill-opacity="1" d=" M-10.423999786376953,16.26300048828125 C-10.925999641418457,16.988000869750977 -7.710999965667725,19.44700050354004 -7.133999824523926,18.44300079345703 C-6.557000160217285,17.43899917602539 -9.543000221252441,14.98799991607666 -10.423999786376953,16.26300048828125z"></path></g></g><g opacity="1" transform="matrix(1,0,0,1,0,0)"><g opacity="1" transform="matrix(1,0,0,1,0,0)"><path fill="rgb(156,39,176)" fill-opacity="1" d=" M14.741000175476074,19.361000061035156 C17.493999481201172,21.791000366210938 17.757999420166016,25.990999221801758 15.331000328063965,28.746000289916992 C12.902000427246094,31.499000549316406 8.70199966430664,31.76300048828125 5.947000026702881,29.336999893188477 C3.193000078201294,26.906999588012695 2.927999973297119,22.70599937438965 5.355999946594238,19.951000213623047 C7.785999774932861,17.197999954223633 11.986000061035156,16.93400001525879 14.741000175476074,19.361000061035156"></path></g><g opacity="1" transform="matrix(1,0,0,1,0,0)"><path fill="rgb(255,255,255)" fill-opacity="1" d=" M5.948999881744385,21.660999298095703 C6.531000137329102,22.32200050354004 9.692000389099121,19.79400062561035 8.855999946594238,18.992000579833984 C8.020999908447266,18.190000534057617 4.922999858856201,20.499000549316406 5.948999881744385,21.660999298095703"></path></g></g><g opacity="1" transform="matrix(1,0,0,1,0,0)"><g opacity="1" transform="matrix(1,0,0,1,0,0)"><path fill="rgb(139,195,74)" fill-opacity="1" d=" M-11.022000312805176,27.42300033569336 C-9.345000267028809,30.690000534057617 -10.631999969482422,34.69599914550781 -13.89799976348877,36.375 C-17.163999557495117,38.051998138427734 -21.170000076293945,36.76599884033203 -22.850000381469727,33.500999450683594 C-24.527000427246094,30.233999252319336 -23.240999221801758,26.226999282836914 -19.975000381469727,24.547000885009766 C-16.708999633789062,22.8700008392334 -12.701000213623047,24.156999588012695 -11.022000312805176,27.42300033569336"></path></g><g opacity="1" transform="matrix(1,0,0,1,0,0)"><path fill="rgb(255,255,255)" fill-opacity="1" d=" M-20.047000885009766,26.354000091552734 C-19.746000289916992,27.183000564575195 -15.880999565124512,25.982999801635742 -16.365999221801758,24.93199920654297 C-16.851999282836914,23.881000518798828 -20.57900047302246,24.898000717163086 -20.047000885009766,26.354000091552734z"></path></g></g><g opacity="1" transform="matrix(1,0,0,1,0,0)"><g opacity="1" transform="matrix(1,0,0,1,0,0)"><path fill="rgb(139,195,74)" fill-opacity="1" d=" M7.880000114440918,35.0629997253418 C6.815999984741211,38.57699966430664 3.1050000190734863,40.5620002746582 -0.4099999964237213,39.5 C-3.9240000247955322,38.43600082397461 -5.909999847412109,34.72600173950195 -4.8480000495910645,31.211000442504883 C-3.7839999198913574,27.695999145507812 -0.0729999989271164,25.709999084472656 3.441999912261963,26.77199935913086 C6.955999851226807,27.836999893188477 8.942000389099121,31.54800033569336 7.880000114440918,35.0629997253418"></path></g><g opacity="1" transform="matrix(1,0,0,1,0,0)"><path fill="rgb(255,255,255)" fill-opacity="1" d=" M2.134999990463257,28.02199935913086 C1.774999976158142,28.82699966430664 5.388999938964844,30.652000427246094 5.769999980926514,29.558000564575195 C6.1519999504089355,28.46500015258789 2.765000104904175,26.604999542236328 2.134999990463257,28.02199935913086z"></path></g></g><g opacity="1" transform="matrix(1,0,0,1,0,0)"><g opacity="1" transform="matrix(1,0,0,1,0,0)"><path fill="rgb(3,169,244)" fill-opacity="1" d=" M18.610000610351562,23.631999969482422 C22.260000228881836,24.027999877929688 24.900999069213867,27.30699920654297 24.506999969482422,30.957000732421875 C24.111000061035156,34.60599899291992 20.833999633789062,37.24700164794922 17.18400001525879,36.854000091552734 C13.534000396728516,36.45899963378906 10.892000198364258,33.17900085449219 11.28600025177002,29.527999877929688 C11.682000160217285,25.878000259399414 14.960000038146973,23.23900032043457 18.610000610351562,23.631999969482422"></path></g><g opacity="1" transform="matrix(1,0,0,1,0,0)"><path fill="rgb(255,255,255)" fill-opacity="1" d=" M12.755999565124512,30.58300018310547 C13.61400032043457,30.78700065612793 14.737000465393066,26.89900016784668 13.592000007629395,26.72599983215332 C12.446999549865723,26.55299949645996 11.246999740600586,30.22599983215332 12.755999565124512,30.58300018310547"></path></g></g><g opacity="1" transform="matrix(1,0,0,1,0,0)"><g opacity="1" transform="matrix(1,0,0,1,0,0)"><path fill="rgb(255,193,7)" fill-opacity="1" d=" M16.871999740600586,27.59600067138672 C19.375999450683594,30.2810001373291 19.232999801635742,34.486000061035156 16.548999786376953,36.99300003051758 C13.864999771118164,39.49700164794922 9.659000396728516,39.354000091552734 7.1519999504089355,36.67100143432617 C4.645999908447266,33.986000061035156 4.790999889373779,29.780000686645508 7.473999977111816,27.273000717163086 C10.15999984741211,24.76799964904785 14.364999771118164,24.913000106811523 16.871999740600586,27.59600067138672"></path></g><g opacity="1" transform="matrix(1,0,0,1,0,0)"><path fill="rgb(255,255,255)" fill-opacity="1" d=" M7.8979997634887695,29.031999588012695 C8.413999557495117,29.746999740600586 11.805000305175781,27.535999298095703 11.050999641418457,26.658000946044922 C10.29699993133545,25.77899932861328 6.988999843597412,27.774999618530273 7.8979997634887695,29.031999588012695"></path></g></g><g opacity="1" transform="matrix(1,0,0,1,0,0)"><g opacity="1" transform="matrix(1,0,0,1,0,0)"><path fill="rgb(255,193,7)" fill-opacity="1" d=" M26.259000778198242,21.058000564575195 C25.743999481201172,24.694000244140625 22.381999969482422,27.225000381469727 18.746000289916992,26.711999893188477 C15.111000061035156,26.197999954223633 12.579999923706055,22.836000442504883 13.092000007629395,19.200000762939453 C13.605999946594238,15.564000129699707 16.9689998626709,13.032999992370605 20.604999542236328,13.545000076293945 C24.240999221801758,14.0600004196167 26.770999908447266,17.422000885009766 26.259000778198242,21.058000564575195"></path></g><g opacity="1" transform="matrix(1,0,0,1,0,0)"><path fill="rgb(255,255,255)" fill-opacity="1" d=" M19.503000259399414,14.979999542236328 C19.270999908447266,15.831000328063965 23.121000289916992,17.07900047302246 23.33099937438965,15.9399995803833 C23.540000915527344,14.800999641418457 19.908000946044922,13.482999801635742 19.503000259399414,14.979999542236328z"></path></g></g></g></g><g style="display: block;" transform="matrix(1,0,0,1,86.697998046875,69.5)" opacity="1"><g opacity="1" transform="matrix(1,0,0,1,0,0)"><path fill="rgb(136,201,242)" fill-opacity="0.5" d=" M28.391000747680664,-20.95800018310547 C25.753000259399414,-25.524999618530273 20.045000076293945,-26.08799934387207 19.27400016784668,-26.926000595092773 C18.62700080871582,-27.885000228881836 18.222000122070312,-28.986000061035156 18.093000411987305,-30.13599967956543 C18.093000411987305,-30.13599967956543 -13.395000457763672,-30.222999572753906 -13.395000457763672,-30.222999572753906 C-13.395000457763672,-30.222999572753906 -13.194999694824219,-27.2549991607666 -14.628999710083008,-26.257999420166016 C-16.02899932861328,-25.277999877929688 -22.229000091552734,-24.466999053955078 -23.381000518798828,-16.790000915527344 C-24.55699920654297,-8.930000305175781 -27.358999252319336,35.87200164794922 -16.726999282836914,39.400001525878906 C-6.09499979019165,42.928001403808594 21.781999588012695,43.108001708984375 27.312999725341797,35.88100051879883 C32.84400177001953,28.65399932861328 31.823999404907227,-15.008999824523926 28.391000747680664,-20.95800018310547z M26.18600082397461,34.33100128173828 C26.18600082397461,34.33100128173828 26.187999725341797,34.33100128173828 26.187999725341797,34.33100128173828 C20.92300033569336,41.237998962402344 -5.644999980926514,41.06800079345703 -15.784000396728516,37.69300079345703 C-25.92300033569336,34.31800079345703 -23.24799919128418,-8.503999710083008 -22.121999740600586,-16.01099967956543 C-21.027000427246094,-23.351999282836914 -14.529000282287598,-24.933000564575195 -13.196999549865723,-25.864999771118164 C-13.196999549865723,-25.864999771118164 -10.456999778747559,-26.90399932861328 2.515000104904175,-26.986000061035156 C11.934000015258789,-27.04599952697754 17.25200080871582,-26.26799964904785 20.08799934387207,-25.402000427246094 C22.232999801635742,-24.39299964904785 25.398000717163086,-23.143999099731445 27.211000442504883,-20 C30.486000061035156,-14.309000015258789 31.457000732421875,27.42099952697754 26.18600082397461,34.33100128173828z"></path></g><g opacity="1" transform="matrix(1.100000023841858,0,0,1.100000023841858,-0.19770002365112305,3.197702407836914)"><g opacity="1" transform="matrix(1,0,0,1,0,0)"><g opacity="1" transform="matrix(1,0,0,1,0,0)"><path fill="rgb(226,43,80)" fill-opacity="1" d=" M-13.817999839782715,-35.862998962402344 C-15.071999549865723,-34.91299819946289 -15.354999542236328,-28.972999572753906 -14.880999565124512,-28.57200050354004 C-13.416000366210938,-27.33300018310547 14.704000473022461,-27.006999969482422 18.9950008392334,-28.472000122070312 C20.378999710083008,-28.94300079345703 18.242000579833984,-35.77199935913086 16.701000213623047,-36.4109992980957 C15.829999923706055,-36.770999908447266 8.692000389099121,-37.39899826049805 1.6410000324249268,-37.49300003051758 C-5.563000202178955,-37.58599853515625 -12.713000297546387,-36.70000076293945 -13.817999839782715,-35.862998962402344z"></path></g><g opacity="1" transform="matrix(1,0,0,1,0,0)"><path fill="rgb(211,29,81)" fill-opacity="1" d=" M17.132999420166016,-36.08700180053711 C17.011999130249023,-36.22100067138672 16.864999771118164,-36.32899856567383 16.701000213623047,-36.40599822998047 C15.829999923706055,-36.76599884033203 8.692000389099121,-37.39400100708008 1.6410000324249268,-37.487998962402344 C-5.39300012588501,-37.58300018310547 -12.366000175476074,-36.74100112915039 -13.725000381469727,-35.922000885009766 C-3.2690000534057617,-35.097999572753906 8.871000289916992,-35.034000396728516 17.132999420166016,-36.08700180053711z"></path></g><g opacity="1" transform="matrix(1,0,0,1,0,0)"><path fill="rgb(99,42,126)" fill-opacity="0.1" d=" M-6.558000087738037,-35.45800018310547 C-8.430999755859375,-35.48099899291992 -11.284000396728516,-35.637001037597656 -13.725000381469727,-35.922000885009766 C-13.756999969482422,-35.90399932861328 -13.788000106811523,-35.88399887084961 -13.817999839782715,-35.86199951171875 C-15.071999549865723,-34.9119987487793 -15.354999542236328,-28.972000122070312 -14.880999565124512,-28.570999145507812 C-14.031999588012695,-27.85300064086914 -4.238999843597412,-27.44300079345703 4.684000015258789,-27.507999420166016 C0.012000000104308128,-28.520000457763672 -4.046999931335449,-31.389999389648438 -6.558000087738037,-35.45800018310547z"></path></g></g><g opacity="1" transform="matrix(1,0,0,1,0,0)"><path fill="rgb(183,40,71)" fill-opacity="1" d=" M6.684000015258789,-37.167999267578125 C6.684000015258789,-36.59000015258789 4.610000133514404,-36.229000091552734 2.1010000705718994,-36.2130012512207 C-0.40799999237060547,-36.196998596191406 -2.3989999294281006,-36.566001892089844 -2.3989999294281006,-37.112998962402344 C-2.4149999618530273,-39.62200164794922 -0.39399999380111694,-41.667999267578125 2.115000009536743,-41.685001373291016 C4.624000072479248,-41.69900131225586 6.669000148773193,-39.676998138427734 6.684000015258789,-37.167999267578125z"></path></g></g><g opacity="1" transform="matrix(1,0,0,1,0,0)"><g opacity="1" transform="matrix(1,0,0,1,0,0)"><path fill="rgb(201,223,242)" fill-opacity="0.2" d=" M27.172000885009766,-19.933000564575195 C30.448999404907227,-14.246000289916992 31.42099952697754,27.492000579833984 26.14900016784668,34.40299987792969 C20.87700080871582,41.31399917602539 -5.690000057220459,41.141998291015625 -15.831000328063965,37.76599884033203 C-25.972000122070312,34.38999938964844 -23.29599952697754,-8.439000129699707 -22.170000076293945,-15.947999954223633 C-21.551000595092773,-20.777999877929688 -17.988000869750977,-24.711000442504883 -13.243000030517578,-25.804000854492188 C-9.996999740600586,-26.701000213623047 4.4720001220703125,-28.038999557495117 17.47100067138672,-25.964000701904297 C19.472999572753906,-25.643999099731445 24.658000946044922,-24.298999786376953 27.172000885009766,-19.933000564575195z"></path></g><g style="mix-blend-mode: soft-light;" opacity="1" transform="matrix(1,0,0,1,0,0)"><path fill="rgb(255,255,255)" fill-opacity="1" d=" M25.145000457763672,26.430999755859375 C24.746999740600586,26.95400047302246 24.190000534057617,27.434999465942383 23.51799964904785,27.865999221801758 C27.111000061035156,19.5939998626709 26.256000518798828,-11.545000076293945 23.68400001525879,-15.991999626159668 C21.593000411987305,-19.618000030517578 17.295000076293945,-20.738000869750977 15.63599967956543,-21.003999710083008 C4.849999904632568,-22.72100067138672 -7.156000137329102,-21.608999252319336 -9.852999687194824,-20.871000289916992 C-11.272000312805176,-20.538999557495117 -12.574999809265137,-19.899999618530273 -13.670000076293945,-19.02899932861328 C-12.366999626159668,-21.26099967956543 -10.168000221252441,-22.920000076293945 -7.538000106811523,-23.525999069213867 C-4.849999904632568,-24.263999938964844 7.1570000648498535,-25.37700080871582 17.94300079345703,-23.659000396728516 C19.601999282836914,-23.39299964904785 23.908000946044922,-22.27400016784668 25.990999221801758,-18.6560001373291 C28.711999893188477,-13.9350004196167 29.51799964904785,20.697999954223633 25.145000457763672,26.430999755859375z"></path></g></g></g></g></svg>
