<?xml version="1.0" standalone="yes"?>
<svg xmlns="http://www.w3.org/2000/svg" width="128" height="128">
<path style="fill:#e57739; stroke:none;" d="M0 0L0 128L128 128L128 0L0 0z"/>
<path style="fill:#e8915e; stroke:none;" d="M43 26L44 27L43 26z"/>
<path style="fill:#f4d0bc; stroke:none;" d="M44 26L44 27L84 27C73.4881 22.589 55.434 26 44 26z"/>
<path style="fill:#eca67e; stroke:none;" d="M84 26L85 27L84 26z"/>
<path style="fill:#e8915e; stroke:none;" d="M85 26L86 27L85 26z"/>
<path style="fill:#f4d0bc; stroke:none;" d="M42 27L41 29L42 27z"/>
<path style="fill:#fffefe; stroke:none;" d="M43.3179 28.0278C37.9165 31.6321 41 51.0574 41 57L41 89C41.0002 92.3408 40.0632 97.8003 43.3179 99.9722C48.5961 103.494 61.7921 101 68 101C72.549 101 81.6341 102.724 85.4861 99.9722C91.2019 95.8882 88 76.3508 88 70L88 39C87.9946 35.654 88.6305 30.2745 85.4861 28.0278C80.5111 24.4731 66.9763 27 61 27C56.281 27 47.3899 25.3106 43.3179 28.0278z"/>
<path style="fill:#eca67e; stroke:none;" d="M86 27L87 28L86 27z"/>
<path style="fill:#e8915e; stroke:none;" d="M87 28L88 29L87 28z"/>
<path style="fill:#f4d0bc; stroke:none;" d="M87.3333 29.6667L87.6667 30.3333L87.3333 29.6667z"/>
<path style="fill:#e8915e; stroke:none;" d="M40 30L41 31L40 30z"/>
<path style="fill:#eca67e; stroke:none;" d="M40 31L40 97L41 97L41 52L40 31z"/>
<path style="fill:#e8915e; stroke:none;" d="M28 46L29 47L28 46z"/>
<path style="fill:#f4d0bc; stroke:none;" d="M99 46L100 47L99 46z"/>
<path style="fill:#e8915e; stroke:none;" d="M100 46L104 50L100 46z"/>
<path style="fill:#f4d0bc; stroke:none;" d="M24 51L29 48L24 51z"/>
<path style="fill:#eca67e; stroke:none;" d="M98 47L99 48L98 47z"/>
<path style="fill:#fffefe; stroke:none;" d="M99 47L102.855 64L99 82C111.47 76.0448 111.184 53.229 99 47M29 83L25.1867 65L29 48C15.3291 54.5287 18.3284 75.3018 29 83z"/>
<path style="fill:#eca67e; stroke:none;" d="M29 48L30 49L29 48z"/>
<path style="fill:#f4d0bc; stroke:none;" d="M98 48L99 49L98 48z"/>
<path style="fill:#eca67e; stroke:none;" d="M97 49L98 50L97 49M30 50L31 51L30 50z"/>
<path style="fill:#f4d0bc; stroke:none;" d="M103 50L104 51L103 50z"/>
<path style="fill:#eca67e; stroke:none;" d="M23 51L24 52L23 51z"/>
<path style="fill:#e8915e; stroke:none;" d="M96 51L97 52L96 51z"/>
<path style="fill:#f4d0bc; stroke:none;" d="M104 51L105 52L104 51z"/>
<path style="fill:#eca67e; stroke:none;" d="M30 52L31 53L30 52z"/>
<path style="fill:#e8915e; stroke:none;" d="M97 52L98 53L97 52M105 52L106 53L105 52z"/>
<path style="fill:#f4d0bc; stroke:none;" d="M22 53L23 54L22 53M29 53L30 54L29 53M53 76L54 76L54 54L59 54C49.9553 50.5637 53 70.8619 53 76M71 53L71 54L76 54L71 53z"/>
<path style="fill:#eca67e; stroke:none;" d="M98 53L99 54L98 53z"/>
<path style="fill:#f4d0bc; stroke:none;" d="M105 53L106 54L105 53M28 54L29 55L28 54z"/>
<path style="fill:#e57739; stroke:none;" d="M54 54L54 76L58 76L58 59L59 59C61.7759 65.5665 67.5327 74.8381 75 76L75 54L72 54L72 70C65.7663 64.9256 62.7699 54.6751 54 54z"/>
<path style="fill:#eca67e; stroke:none;" d="M59 54L60 55L59 54M71 54L70 70C73.4441 66.9904 72.674 57.9894 71 54M75 54L75 76L76 76L75 54z"/>
<path style="fill:#f4d0bc; stroke:none;" d="M99 54L100 55L99 54z"/>
<path style="fill:#e8915e; stroke:none;" d="M106 54L107 55L106 54z"/>
<path style="fill:#f4d0bc; stroke:none;" d="M21 55L22 56L21 55z"/>
<path style="fill:#e8915e; stroke:none;" d="M28 55L29 56L28 55M33 55L34 56L33 55z"/>
<path style="fill:#f4d0bc; stroke:none;" d="M60 55L61 56L60 55z"/>
<path style="fill:#eca67e; stroke:none;" d="M94 55L95 56L94 55z"/>
<path style="fill:#e8915e; stroke:none;" d="M95 55L98 58L95 55z"/>
<path style="fill:#f4d0bc; stroke:none;" d="M106 55L107 56L106 55M27 56L28 57L27 56M31 58L34 57L31 58z"/>
<path style="fill:#e8915e; stroke:none;" d="M60 56L61 57L60 56z"/>
<path style="fill:#fffefe; stroke:none;" d="M94 56L94 73C100.94 69.358 99.269 61.8359 96 56L94 56z"/>
<path style="fill:#eca67e; stroke:none;" d="M100 56L101 57L100 56z"/>
<path style="fill:#e8915e; stroke:none;" d="M107 56L108 57L107 56z"/>
<path style="fill:#eca67e; stroke:none;" d="M20 57L21 58L20 57z"/>
<path style="fill:#fffefe; stroke:none;" d="M34 74L34 57C26.7332 60.8134 28.2944 69.4772 34 74z"/>
<path style="fill:#eca67e; stroke:none;" d="M34 57L35 58L34 57M61 57L62 58L61 57z"/>
<path style="fill:#f4d0bc; stroke:none;" d="M93 57L94 58L93 57z"/>
<path style="fill:#eca67e; stroke:none;" d="M107 57L108 58L107 57z"/>
<path style="fill:#f4d0bc; stroke:none;" d="M20 58L21 59L20 58M26 58L27 59L26 58z"/>
<path style="fill:#eca67e; stroke:none;" d="M30 58L31 59L30 58z"/>
<path style="fill:#f4d0bc; stroke:none;" d="M62 58L63 59L62 58M97 58L98 59L97 58z"/>
<path style="fill:#eca67e; stroke:none;" d="M101 58L102 59L101 58z"/>
<path style="fill:#f4d0bc; stroke:none;" d="M107 58L108 59L107 58z"/>
<path style="fill:#eca67e; stroke:none;" d="M26 59L27 60L26 59z"/>
<path style="fill:#e8915e; stroke:none;" d="M29 59L30 60L29 59z"/>
<path style="fill:#eca67e; stroke:none;" d="M35 59L36 60L35 59z"/>
<path style="fill:#e8915e; stroke:none;" d="M58 59L59 60L58 59z"/>
<path style="fill:#f4d0bc; stroke:none;" d="M63 59L64 60L63 59M92 59L93 60L92 59z"/>
<path style="fill:#eca67e; stroke:none;" d="M98 59L99 60L98 59z"/>
<path style="fill:#e8915e; stroke:none;" d="M101 59L102 60L101 59z"/>
<path style="fill:#f4d0bc; stroke:none;" d="M29 60L30 61L29 60z"/>
<path style="fill:#e8915e; stroke:none;" d="M63 60L64 61L63 60z"/>
<path style="fill:#f4d0bc; stroke:none;" d="M98 60L99 61L98 60M102.333 60.6667L102.667 61.3333L102.333 60.6667z"/>
<path style="fill:#e8915e; stroke:none;" d="M108 60L109 61L108 60M19 61L20 62L19 61z"/>
<path style="fill:#f4d0bc; stroke:none;" d="M25.3333 61.6667L25.6667 62.3333L25.3333 61.6667M35 61L36 62L35 61M59 61L60 62L59 61z"/>
<path style="fill:#eca67e; stroke:none;" d="M64 61L65 62L64 61M92 61L93 62L92 61M108.333 61.6667L108.667 62.3333L108.333 61.6667M19 62L19 68L20 68L19 62z"/>
<path style="fill:#e8915e; stroke:none;" d="M28 62L29 63L28 62z"/>
<path style="fill:#eca67e; stroke:none;" d="M60 62L61 63L60 62z"/>
<path style="fill:#f4d0bc; stroke:none;" d="M65 62L66 63L65 62M93.3333 62.6667L93.6667 63.3333L93.3333 62.6667z"/>
<path style="fill:#eca67e; stroke:none;" d="M99.3333 62.6667L99.6667 63.3333L99.3333 62.6667M102 62L102 67L103 67L102 62M25 63L25 67L26 67L25 63M28 63L28 67L29 67L28 63z"/>
<path style="fill:#f4d0bc; stroke:none;" d="M34 63L34 67L35 67L34 63z"/>
<path style="fill:#e8915e; stroke:none;" d="M61 63L62 64L61 63z"/>
<path style="fill:#f4d0bc; stroke:none;" d="M66 63L67 64L66 63M108 63L108 67L109 67L108 63z"/>
<path style="fill:#e8915e; stroke:none;" d="M66 64L67 65L66 64z"/>
<path style="fill:#eca67e; stroke:none;" d="M93.3333 64.6667L93.6667 65.3333L93.3333 64.6667z"/>
<path style="fill:#f4d0bc; stroke:none;" d="M99.3333 64.6667L99.6667 65.3333L99.3333 64.6667M62 65L63 66L62 65z"/>
<path style="fill:#eca67e; stroke:none;" d="M67 65L68 66L67 65M63 66L64 67L63 66z"/>
<path style="fill:#f4d0bc; stroke:none;" d="M68 66L69 67L68 66M93 66L94 67L93 66z"/>
<path style="fill:#eca67e; stroke:none;" d="M99 66L100 67L99 66z"/>
<path style="fill:#f4d0bc; stroke:none;" d="M25.3333 67.6667L25.6667 68.3333L25.3333 67.6667z"/>
<path style="fill:#e8915e; stroke:none;" d="M28 67L29 68L28 67M35 67L36 68L35 67M64 67L65 68L64 67M99 67L100 68L99 67z"/>
<path style="fill:#f4d0bc; stroke:none;" d="M102.333 67.6667L102.667 68.3333L102.333 67.6667z"/>
<path style="fill:#eca67e; stroke:none;" d="M108.333 67.6667L108.667 68.3333L108.333 67.6667z"/>
<path style="fill:#e8915e; stroke:none;" d="M19 68L20 69L19 68z"/>
<path style="fill:#f4d0bc; stroke:none;" d="M35 68L36 69L35 68z"/>
<path style="fill:#e8915e; stroke:none;" d="M69 68L70 69L69 68z"/>
<path style="fill:#f4d0bc; stroke:none;" d="M92.3333 68.6667L92.6667 69.3333L92.3333 68.6667z"/>
<path style="fill:#eca67e; stroke:none;" d="M29 69L30 70L29 69z"/>
<path style="fill:#f4d0bc; stroke:none;" d="M65 69L66 70L65 69M98 69L99 70L98 69z"/>
<path style="fill:#e8915e; stroke:none;" d="M108 69L109 70L108 69z"/>
<path style="fill:#f4d0bc; stroke:none;" d="M20.3333 70.6667L20.6667 71.3333L20.3333 70.6667z"/>
<path style="fill:#eca67e; stroke:none;" d="M26 70L27 71L26 70z"/>
<path style="fill:#f4d0bc; stroke:none;" d="M35 70L36 71L35 70z"/>
<path style="fill:#eca67e; stroke:none;" d="M66 70L67 71L66 70z"/>
<path style="fill:#e8915e; stroke:none;" d="M92 70L93 71L92 70M101 70L102 71L101 70z"/>
<path style="fill:#f4d0bc; stroke:none;" d="M26 71L27 72L26 71z"/>
<path style="fill:#eca67e; stroke:none;" d="M30 71L31 72L30 71z"/>
<path style="fill:#e8915e; stroke:none;" d="M67 71L68 72L67 71z"/>
<path style="fill:#f4d0bc; stroke:none;" d="M93 71L94 72L93 71z"/>
<path style="fill:#eca67e; stroke:none;" d="M97 71L98 72L97 71z"/>
<path style="fill:#f4d0bc; stroke:none;" d="M101 71L102 72L101 71M107 71L108 72L107 71z"/>
<path style="fill:#e8915e; stroke:none;" d="M20 72L21 73L20 72M27 72L28 73L27 72z"/>
<path style="fill:#f4d0bc; stroke:none;" d="M31 72L32 73L31 72z"/>
<path style="fill:#eca67e; stroke:none;" d="M34 72L35 73L34 72z"/>
<path style="fill:#e8915e; stroke:none;" d="M93 72L94 73L93 72z"/>
<path style="fill:#f4d0bc; stroke:none;" d="M96 72L97 73L96 72z"/>
<path style="fill:#e8915e; stroke:none;" d="M100 72L101 73L100 72z"/>
<path style="fill:#eca67e; stroke:none;" d="M107 72L108 73L107 72z"/>
<path style="fill:#f4d0bc; stroke:none;" d="M27 73L28 74L27 73M32 73L33 74L32 73M68 73L69 74L68 73M94.6667 73.3333L95.3333 73.6667L94.6667 73.3333M100 73L101 74L100 73z"/>
<path style="fill:#eca67e; stroke:none;" d="M21 74L22 75L21 74z"/>
<path style="fill:#e8915e; stroke:none;" d="M28 74L29 75L28 74M33 74L34 75L33 74z"/>
<path style="fill:#eca67e; stroke:none;" d="M69 74L70 75L69 74z"/>
<path style="fill:#e8915e; stroke:none;" d="M99 74L100 75L99 74z"/>
<path style="fill:#eca67e; stroke:none;" d="M106 74L107 75L106 74z"/>
<path style="fill:#e8915e; stroke:none;" d="M70 75L71 76L70 75z"/>
<path style="fill:#eca67e; stroke:none;" d="M22 76L23 77L22 76z"/>
<path style="fill:#f4d0bc; stroke:none;" d="M29 76L30 77L29 76M98 76L99 77L98 76z"/>
<path style="fill:#eca67e; stroke:none;" d="M105 76L106 77L105 76z"/>
<path style="fill:#f4d0bc; stroke:none;" d="M30 77L31 78L30 77M97.3333 77.6667L97.6667 78.3333L97.3333 77.6667z"/>
<path style="fill:#e8915e; stroke:none;" d="M23 78L24 79L23 78z"/>
<path style="fill:#eca67e; stroke:none;" d="M31 78L32 79L31 78z"/>
<path style="fill:#e8915e; stroke:none;" d="M104 78L105 79L104 78z"/>
<path style="fill:#eca67e; stroke:none;" d="M24 79L25 80L24 79z"/>
<path style="fill:#f4d0bc; stroke:none;" d="M30 79L31 80L30 79z"/>
<path style="fill:#e8915e; stroke:none;" d="M97 79L98 80L97 79z"/>
<path style="fill:#eca67e; stroke:none;" d="M103 79L104 80L103 79z"/>
<path style="fill:#f4d0bc; stroke:none;" d="M25 80L26 81L25 80z"/>
<path style="fill:#eca67e; stroke:none;" d="M30 80L31 81L30 80z"/>
<path style="fill:#f4d0bc; stroke:none;" d="M98 80L99 81L98 80M102 80L103 81L102 80M26 81L27 82L26 81M29 81L30 82L29 81z"/>
<path style="fill:#e8915e; stroke:none;" d="M98 81L99 82L98 81z"/>
<path style="fill:#f4d0bc; stroke:none;" d="M101 81L102 82L101 81M27 82L28 83L27 82z"/>
<path style="fill:#e8915e; stroke:none;" d="M29 82L30 83L29 82z"/>
<path style="fill:#eca67e; stroke:none;" d="M99 82L100 83L99 82z"/>
<path style="fill:#f4d0bc; stroke:none;" d="M100 82L101 83L100 82z"/>
<path style="fill:#eca67e; stroke:none;" d="M28 83L29 84L28 83z"/>
<path style="fill:#e8915e; stroke:none;" d="M40 97L41 98L40 97z"/>
<path style="fill:#f4d0bc; stroke:none;" d="M87.3333 97.6667L87.6667 98.3333L87.3333 97.6667M41 99L42 100L41 99z"/>
<path style="fill:#e8915e; stroke:none;" d="M87 99L88 100L87 99z"/>
<path style="fill:#f4d0bc; stroke:none;" d="M42 100L43 101L42 100z"/>
<path style="fill:#eca67e; stroke:none;" d="M86 100L87 101L86 100M43 101L44 102L43 101z"/>
<path style="fill:#f4d0bc; stroke:none;" d="M44 101L44 102L85 102C74.2501 97.4892 55.6957 101 44 101z"/>
<path style="fill:#e8915e; stroke:none;" d="M85 101L86 102L85 101z"/>
</svg>
